<svg viewBox="0 0 91 91" xml:space="preserve" xmlns="http://www.w3.org/2000/svg"><path fill="#1f2937" d="M87.646 75.224 45.828 86.63V14.87L87.646 3.464z" class="fill-9abfda"></path><path d="M45.828 89.143a2.515 2.515 0 0 1-2.512-2.513V14.87c0-1.133.759-2.126 1.852-2.424L86.985 1.041a2.51 2.51 0 0 1 3.174 2.424v71.759a2.513 2.513 0 0 1-1.852 2.424L46.489 89.054a2.53 2.53 0 0 1-.661.089zm2.513-72.354V83.34l36.793-10.035V6.754L48.341 16.789z" fill="#d1d0d7" class="fill-454b53"></path><path fill="#1f2937" d="M45.828 86.628 4.006 75.224V3.465L45.828 14.87z" class="fill-e0f1f8"></path><path d="M45.828 89.141c-.221 0-.443-.029-.661-.089L3.345 77.647a2.513 2.513 0 0 1-1.852-2.424V3.465a2.515 2.515 0 0 1 3.174-2.424l41.822 11.404a2.513 2.513 0 0 1 1.852 2.424v71.758a2.515 2.515 0 0 1-2.513 2.514zM6.519 73.305l36.797 10.033V16.789L6.519 6.755v66.55z" fill="#d1d0d7" class="fill-454b53"></path><path d="M36.801 44.324c-.214 0-.432-.027-.647-.086l-22.337-5.939a2.511 2.511 0 0 1-1.782-3.074 2.515 2.515 0 0 1 3.073-1.783l22.337 5.939a2.511 2.511 0 0 1 1.782 3.074 2.513 2.513 0 0 1-2.426 1.869zM36.801 60.905a2.49 2.49 0 0 1-.647-.085l-22.337-5.938c-1.341-.355-2.139-1.732-1.782-3.073s1.731-2.14 3.073-1.782l22.337 5.937a2.513 2.513 0 0 1-.644 4.941zM54.853 30.593a2.512 2.512 0 0 1-.644-4.941l22.338-5.943a2.513 2.513 0 0 1 1.291 4.856L55.5 30.508a2.496 2.496 0 0 1-.647.085zM54.853 45.273a2.514 2.514 0 0 1-.644-4.942l22.338-5.937a2.512 2.512 0 0 1 1.291 4.857L55.5 45.188a2.501 2.501 0 0 1-.647.085zM54.853 59.958a2.513 2.513 0 0 1-.644-4.941l22.338-5.942a2.513 2.513 0 0 1 1.291 4.856L55.5 59.873a2.496 2.496 0 0 1-.647.085zM73.057 69.799a2.513 2.513 0 0 1-.645-4.941l4.134-1.1a2.514 2.514 0 0 1 3.074 1.781 2.51 2.51 0 0 1-1.781 3.074l-4.134 1.101a2.547 2.547 0 0 1-.648.085zM54.853 74.643a2.513 2.513 0 0 1-.645-4.941l8.267-2.201a2.512 2.512 0 0 1 1.293 4.855l-8.267 2.201a2.554 2.554 0 0 1-.648.086z" fill="#d1d0d7" class="fill-454b53"></path></svg>